<?xml version="1.0" encoding="utf-8"?>
<!-- Generator: Adobe Illustrator 28.4.1, SVG Export Plug-In . SVG Version: 6.00 Build 0)  -->
<svg version="1.1" id="Livello_1" xmlns="http://www.w3.org/2000/svg" xmlns:xlink="http://www.w3.org/1999/xlink" x="0px" y="0px"
	 viewBox="0 0 72 72" style="enable-background:new 0 0 72 72;" xml:space="preserve">
<style type="text/css">
	.st0{fill:#302721;}
	.st1{fill:none;}
	.st2{enable-background:new    ;}
	.st3{fill:#FFFFFF;}
</style>
<rect class="st0" width="72" height="72"/>
<rect x="1" y="1" class="st1" width="70" height="70"/>
<g>
	<g class="st2">
		<path class="st3" d="M7.6,44.9V44c0.3-0.1,0.6-0.3,0.9-0.4c0.3-0.1,0.6-0.2,1-0.3l0.3-9.5l-1.5-2c0.6-0.4,1.3-0.7,1.9-0.9
			c0.7-0.2,1.4-0.4,2.1-0.5v12.9l2,0.6v0.9H7.6z M11.4,24.1c0.3,0.3,0.6,0.7,0.9,1.1c0.3,0.4,0.4,0.9,0.5,1.3
			c-0.3,0.3-0.7,0.6-1.1,0.9c-0.4,0.3-0.9,0.4-1.3,0.5c-0.3-0.3-0.6-0.7-0.9-1.1C9.2,26.4,9.1,26,9,25.5c0.3-0.3,0.7-0.6,1.1-0.9
			C10.5,24.4,11,24.2,11.4,24.1z"/>
		<path class="st3" d="M15.6,44.9V44c0.3-0.1,0.5-0.3,0.8-0.4s0.6-0.2,1.1-0.3l0.3-9.5l-1.5-2c1.2-0.7,2.5-1.2,3.8-1.3l0.3,3.1v9.8
			l2,0.6v0.9H15.6z M26.4,34.2c-1-0.8-2-1.2-3.1-1.2c-1.1,0-2.2,0.4-3.2,1.2L20,33.6c0.5-0.7,1.1-1.2,1.7-1.7s1.2-0.9,1.9-1.3
			c0.1,0,0.3,0,0.4,0c0.1,0,0.3,0,0.4,0c0.9,0,1.8,0.2,2.6,0.6c0.8,0.4,1.5,1.1,2.1,2L26.4,34.2z M24.3,44.9V44
			c0.2-0.1,0.5-0.3,0.8-0.4s0.6-0.2,1-0.3l0.3-9.2l2.7-1l-0.2,0.5v9.7l2,0.6v0.9H24.3z M35,34.2c-0.9-0.8-1.9-1.2-3-1.2
			c-1.1,0-2.1,0.4-3.2,1.2l0-0.6c0.5-0.7,1.1-1.2,1.7-1.7c0.6-0.5,1.2-0.9,1.8-1.3c0.2,0,0.3,0,0.4,0c0.1,0,0.2,0,0.3,0
			c0.9,0,1.8,0.2,2.5,0.6c0.8,0.4,1.5,1,2.1,1.8L35,34.2z M32.9,44.9V44c0.2-0.1,0.5-0.3,0.8-0.4s0.6-0.2,1-0.3l0.3-9.2l2.6-1.2
			v10.5l2,0.6v0.9H32.9z"/>
		<path class="st3" d="M40.7,44.9V44c0.3-0.1,0.5-0.3,0.8-0.4s0.6-0.2,1.1-0.3l0.3-9.5l-1.5-2c1.2-0.7,2.5-1.2,3.8-1.3l0.3,3.1v9.8
			l2,0.6v0.9H40.7z M51.5,34.2c-1-0.8-2-1.2-3.1-1.2c-1.1,0-2.2,0.4-3.2,1.2l-0.1-0.6c0.5-0.7,1.1-1.2,1.7-1.7s1.2-0.9,1.9-1.3
			c0.1,0,0.3,0,0.4,0s0.3,0,0.4,0c0.9,0,1.8,0.2,2.6,0.6c0.8,0.4,1.5,1.1,2.1,2L51.5,34.2z M49.3,44.9V44c0.2-0.1,0.5-0.3,0.8-0.4
			s0.6-0.2,1-0.3l0.3-9.2l2.7-1L54,33.7v9.7l2,0.6v0.9H49.3z M60.1,34.2c-0.9-0.8-1.9-1.2-3-1.2c-1.1,0-2.1,0.4-3.2,1.2l0-0.6
			c0.5-0.7,1.1-1.2,1.7-1.7s1.2-0.9,1.8-1.3c0.2,0,0.3,0,0.4,0s0.2,0,0.3,0c0.9,0,1.8,0.2,2.5,0.6s1.5,1,2.1,1.8L60.1,34.2z
			 M58,44.9V44c0.2-0.1,0.5-0.3,0.8-0.4s0.6-0.2,1-0.3l0.3-9.2l2.6-1.2v10.5l2,0.6v0.9H58z"/>
	</g>
</g>
</svg>
