<?xml version="1.0" encoding="utf-8"?>
<!-- Generator: Adobe Illustrator 28.4.1, SVG Export Plug-In . SVG Version: 6.00 Build 0)  -->
<svg version="1.1" id="Layer_1" xmlns="http://www.w3.org/2000/svg" xmlns:xlink="http://www.w3.org/1999/xlink" x="0px" y="0px"
	 viewBox="0 0 16 16" style="enable-background:new 0 0 16 16;" xml:space="preserve">
<style type="text/css">
	.st0{fill-rule:evenodd;clip-rule:evenodd;fill:#FFFFFF;}
</style>
<g>
	<path class="st0" d="M16,8c0,1.6-1.3,3-3,3c-1.1,0-2-0.6-2.5-1.4C10.8,9.1,11,8.6,11,8s-0.2-1.1-0.4-1.6C11,5.6,12,5,13,5
		C14.7,5,16,6.4,16,8z"/>
	<path class="st0" d="M10.1,8c0,0.6,0.2,1.1,0.5,1.6C10,10.4,9.1,11,8,11s-2-0.6-2.5-1.4c0.3-0.5,0.5-1,0.5-1.6S5.8,6.9,5.5,6.4
		C6,5.6,6.9,5,8,5s2,0.6,2.5,1.4C10.2,6.9,10.1,7.4,10.1,8z"/>
	<path class="st0" d="M5,8c0,0.6,0.2,1.1,0.4,1.6C5,10.4,4,11,3,11c-1.6,0-3-1.3-3-3s1.3-3,3-3C4,5,5,5.6,5.5,6.4C5.2,6.9,5,7.4,5,8
		z"/>
</g>
</svg>
