<?xml version="1.0" encoding="utf-8"?>
<!-- Generator: Adobe Illustrator 28.4.1, SVG Export Plug-In . SVG Version: 6.00 Build 0)  -->
<svg version="1.1" id="Layer_1" xmlns="http://www.w3.org/2000/svg" xmlns:xlink="http://www.w3.org/1999/xlink" x="0px" y="0px"
	 viewBox="0 0 16 16" style="enable-background:new 0 0 16 16;" xml:space="preserve">
<style type="text/css">
	.st0{fill:#FFFFFF;}
</style>
<path class="st0" d="M6,15c-0.9,0-1.7-0.2-2.5-0.7C1.1,13,0.3,9.9,1.7,7.6C2.5,6,4.2,5.1,6,5.1c0.7,0,1.4,0.2,2.1,0.5L13.3,8V2.7H10
	v-1L14,1c0.1,0,0.1,0,0.2,0c0.2,0,0.4,0.1,0.6,0.2C14.9,1.4,15,1.6,15,1.8l0,7.5c0,0.2,0,0.3-0.1,0.4c-0.1,0.3-0.5,0.5-0.8,0.5
	c-0.1,0-0.2,0-0.4-0.1l-6.4-3C6.9,6.9,6.4,6.8,6,6.8c-1.1,0-2.2,0.6-2.8,1.6c-0.9,1.5-0.4,3.5,1.2,4.4c0.5,0.3,1,0.4,1.6,0.4l7.2,0
	V15L6,15z"/>
</svg>
