<?xml version="1.0" encoding="utf-8"?>
<!-- Generator: Adobe Illustrator 28.4.1, SVG Export Plug-In . SVG Version: 6.00 Build 0)  -->
<svg version="1.1" id="Layer_1" xmlns="http://www.w3.org/2000/svg" xmlns:xlink="http://www.w3.org/1999/xlink" x="0px" y="0px"
	 viewBox="0 0 16 16" style="enable-background:new 0 0 16 16;" xml:space="preserve">
<style type="text/css">
	.st0{fill:#FFFFFF;}
</style>
<path class="st0" d="M12.9,0c-0.2,0-0.4,0.1-0.9,0.6c-0.2,0.1-0.4,0-0.7,0.4c-1.4,2.1-2.5,9.8-3.5,12c-0.2-1-0.6-7.2-0.7-8.9
	c0-0.3,0-0.7,0-1c0-1.6-0.3-2.4-1.9-2.4c-0.8,0-1.6,0.3-2,0.8c-0.2,0.3-0.3,0.5-0.3,1c0,3.3,0.8,8.6,1.7,12.2
	C4.8,15.8,5.7,16,6.7,16c0.4,0,0.9-0.1,1.5-0.4c2.1-1,2.7-3.9,3.3-6.7c0.1-0.5,0.6-2.9,0.8-4.2c0.3-1.7,0.7-3.7,0.9-4.4
	C13.2,0.2,13.1,0,12.9,0L12.9,0z"/>
</svg>
