<?xml version="1.0" encoding="utf-8"?>
<!-- Generator: Adobe Illustrator 28.4.1, SVG Export Plug-In . SVG Version: 6.00 Build 0)  -->
<svg version="1.1" id="Layer_1" xmlns="http://www.w3.org/2000/svg" xmlns:xlink="http://www.w3.org/1999/xlink" x="0px" y="0px"
	 viewBox="0 0 1000 196.8" style="enable-background:new 0 0 1000 196.8;" xml:space="preserve">
<style type="text/css">
	.st0{fill:#FFFFFF;}
</style>
<g>
	<g>
		<path class="st0" d="M721.4-277v-7.5c1.9-1.1,3.8-2.2,5.9-3.2c2.1-1,4.2-1.8,6.5-2.4l2.1-66.1l-11.5-16.3
			c5.3-3.1,10.8-5.6,16.6-7.5c5.8-1.9,11.9-3,18.3-3.4v93.7l13.3,4.5v8.1L721.4-277L721.4-277z M751-433c3.1,2.7,5.8,5.9,7.9,9.6
			c2.1,3.7,3.5,7.5,4.1,11.3c-2.4,2.9-5.6,5.4-9.4,7.6c-3.9,2.2-7.7,3.6-11.6,4.2c-2.9-2.4-5.4-5.5-7.6-9.3
			c-2.2-3.8-3.7-7.7-4.4-11.7c2.7-2.9,5.9-5.4,9.5-7.6C743.1-431.1,747-432.5,751-433z"/>
		<path class="st0" d="M781.8-277v-7.5c1.7-1.1,3.5-2.2,5.5-3.1c1.9-0.9,4.2-1.7,7-2.5l2.1-66.1l-11.6-16.3
			c10.3-6,21.1-9.6,32.5-10.9l2.4,24.6v69.1l13.3,4.5v8.1L781.8-277L781.8-277z M818.1-353.9l-0.6-4.3c3.7-5.1,7.6-9.7,11.8-13.8
			c4.1-4.1,8.6-7.6,13.3-10.6c1.1-0.1,2.2-0.2,3.3-0.3c1.1-0.1,2.1-0.1,3.1-0.1c7,0,13.3,1.4,19,4.3c5.7,2.9,10.8,7.3,15.2,13.5
			l-23.1,11.1c-6.6-5.1-13.5-7.7-20.8-7.7C832.2-361.8,825.1-359.1,818.1-353.9z M845.5-277v-7.5c1.6-1.1,3.4-2.2,5.3-3.2
			c2-1,4.4-1.8,7.1-2.4l2.1-64l23.1-11.1v75.5l13.5,4.5v8.1L845.5-277L845.5-277z"/>
		<path class="st0" d="M904.6-277v-7.5c1.7-1.1,3.5-2.2,5.5-3.1c1.9-0.9,4.2-1.7,7-2.5l2.1-66.1l-11.6-16.3
			c10.3-6,21.1-9.6,32.5-10.9l2.4,24.6v69.1l13.3,4.5v8.1L904.6-277L904.6-277z M982.9-354.1c-6.6-5.1-13.5-7.7-20.8-7.7
			c-7.1,0-14.2,2.6-21.2,7.9l-0.6-4.3c3.7-5.1,7.6-9.7,11.8-13.8c4.1-4.1,8.6-7.6,13.3-10.6c1.1-0.1,2.2-0.2,3.3-0.3
			s2.1-0.1,3.1-0.1c7.4,0,14.1,1.6,20,4.9c5.9,3.3,11.2,8.6,15.9,15.8L982.9-354.1z M968.4-277v-7.5c1.6-1.1,3.4-2.2,5.3-3.2
			c2-1,4.4-1.8,7.1-2.4l2.1-64l24.8-8.1l-1.7,4.1v68.5l13.5,4.5v8.1L968.4-277L968.4-277z M1046.5-354.1c-6.4-5.1-13.3-7.7-20.5-7.7
			c-7.1,0-14.3,2.6-21.4,7.9l-0.6-4.3c3.7-5.1,7.6-9.7,11.8-13.8c4.1-4.1,8.6-7.6,13.3-10.6c1.1-0.1,2.2-0.2,3.3-0.3
			s2.1-0.1,3.1-0.1c7,0,13.3,1.4,19,4.3c5.7,2.9,10.8,7.3,15.2,13.5L1046.5-354.1z M1031.9-277v-7.5c1.6-1.1,3.4-2.2,5.4-3.2
			s4.4-1.8,7.1-2.4l2.1-64l23.1-11.1v75.5l13.5,4.5v8.1L1031.9-277L1031.9-277z"/>
		<path class="st0" d="M1077.9-238.7l1.5-17.1l40.9,2.8c3.6-4.4,6.5-8.6,8.9-12.5s4.5-8.1,6.3-12.5c1.9-4.4,3.7-9.5,5.6-15.2
			l27.6-85.6h18.2l-31.7,90.5c-6.4,18.4-14,32-22.7,40.9c-8.7,8.8-19.1,13.3-31.2,13.3c-3.4,0-7.1-0.4-11-1.2
			C1086.3-236.2,1082.2-237.3,1077.9-238.7z M1107.9-363.1c-4.6-0.9-9-2.1-13.3-3.6c-4.3-1.6-8.5-3.6-12.6-6v-8.3h49.2v8.3
			L1107.9-363.1z M1123.7-278.3l-35.3-100.6h27.6l29.5,95.9L1123.7-278.3z M1178.7-363.1c-5-0.9-10-2.1-15-3.6
			c-5-1.6-9.8-3.6-14.3-6v-8.3h42.8v8.3L1178.7-363.1z"/>
		<path class="st0" d="M1193.9-277v-7.5c1.7-1.1,3.5-2.2,5.5-3.1c1.9-0.9,4.2-1.7,7-2.5l2.1-66.1l-11.6-16.3
			c10.3-6,21.1-9.6,32.5-10.9l2.4,24.6v69.1l13.3,4.5v8.1L1193.9-277L1193.9-277z M1272.2-354.1c-6.6-5.1-13.5-7.7-20.8-7.7
			c-7.1,0-14.2,2.6-21.2,7.9l-0.6-4.3c3.7-5.1,7.6-9.7,11.8-13.8c4.1-4.1,8.6-7.6,13.3-10.6c1.1-0.1,2.2-0.2,3.3-0.3
			s2.1-0.1,3.1-0.1c7.4,0,14.1,1.6,20,4.9c5.9,3.3,11.2,8.6,15.9,15.8L1272.2-354.1z M1257.7-277v-7.5c1.6-1.1,3.4-2.2,5.3-3.2
			c2-1,4.4-1.8,7.1-2.4l2.1-64l24.8-8.1l-1.7,4.1v68.5l13.5,4.5v8.1L1257.7-277L1257.7-277z M1335.8-354.1
			c-6.4-5.1-13.3-7.7-20.5-7.7c-7.1,0-14.3,2.6-21.4,7.9l-0.6-4.3c3.7-5.1,7.6-9.7,11.8-13.8c4.1-4.1,8.6-7.6,13.3-10.6
			c1.1-0.1,2.2-0.2,3.3-0.3s2.1-0.1,3.1-0.1c7,0,13.3,1.4,19,4.3c5.7,2.9,10.8,7.3,15.2,13.5L1335.8-354.1z M1321.3-277v-7.5
			c1.6-1.1,3.4-2.2,5.4-3.2s4.3-1.8,7.1-2.4l2.1-64l23.1-11.1v75.5l13.5,4.5v8.1L1321.3-277L1321.3-277z"/>
		<path class="st0" d="M1380.3-277v-7.5c1.9-1.1,3.8-2.2,5.9-3.2s4.2-1.8,6.5-2.4l2.1-66.1l-11.6-16.3c5.3-3.1,10.8-5.6,16.6-7.5
			c5.8-1.9,11.9-3,18.3-3.4v93.7l13.3,4.5v8.1L1380.3-277L1380.3-277z M1409.8-433c3.1,2.7,5.8,5.9,7.9,9.6
			c2.1,3.7,3.5,7.5,4.1,11.3c-2.4,2.9-5.6,5.4-9.4,7.6c-3.9,2.2-7.7,3.6-11.6,4.2c-2.9-2.4-5.4-5.5-7.6-9.3
			c-2.2-3.8-3.7-7.7-4.4-11.7c2.7-2.9,5.9-5.4,9.5-7.6C1402-431.1,1405.9-432.5,1409.8-433z"/>
		<path class="st0" d="M1440.7-277v-7.5c1.7-1.1,3.5-2.2,5.5-3.1c1.9-0.9,4.2-1.7,7-2.5l2.1-66.1l-11.6-16.3
			c10.3-6,21.1-9.6,32.5-10.9l2.4,24.6v69.1l13.3,4.5v8.1L1440.7-277L1440.7-277z M1477-353.9l-0.6-4.3c3.7-5.1,7.6-9.7,11.8-13.8
			c4.1-4.1,8.6-7.6,13.3-10.6c1.1-0.1,2.2-0.2,3.3-0.3s2.1-0.1,3.1-0.1c7,0,13.3,1.4,19,4.3c5.7,2.9,10.8,7.3,15.2,13.5l-23.1,11.1
			c-6.6-5.1-13.5-7.7-20.8-7.7C1491.1-361.8,1484-359.1,1477-353.9z M1504.4-277v-7.5c1.6-1.1,3.4-2.2,5.3-3.2c2-1,4.4-1.8,7.1-2.4
			l2.1-64l23.1-11.1v75.5l13.5,4.5v8.1L1504.4-277L1504.4-277z"/>
		<path class="st0" d="M1606.9-275.1c-8.4,0-15.8-2.1-22.1-6.4c-6.3-4.3-11.3-10.3-14.8-18.1c-3.5-7.8-5.2-16.9-5.2-27.3
			c0-17.8,4.9-31.7,14.8-41.5c9.8-9.8,23-14.8,39.6-14.8c4.8,0,9.9,0.4,15.2,1.3c5.3,0.9,10.7,2.1,16.3,3.9l-3.2,21.2
			c-12.3-6.4-24.1-9.6-35.5-9.6c-4.3,0-8.4,0.5-12.3,1.5c-3.9,1-7.8,2.5-11.7,4.5l9.8-6.4c-2.7,5.1-4.8,11-6.3,17.4
			c-1.5,6.5-2.2,13.2-2.2,20.2c0,7.3,1,13.3,2.9,18.2s4.7,8.5,8.2,10.9c3.6,2.4,7.7,3.6,12.4,3.6c3.3,0,6.7-0.6,10.3-1.8
			c3.6-1.2,7.3-3,11.1-5.5v5.1c-3.1,4.3-6.7,8.5-10.6,12.5c-3.9,4.1-8.2,7.7-12.7,10.8c-0.7,0-1.4,0-1.9,0.1
			C1608.3-275.2,1607.7-275.1,1606.9-275.1z M1655.7-275.5c-3.6,0-7.1-0.9-10.5-2.8c-3.4-1.9-6.3-4.6-8.7-8.3
			c-2.4-3.7-3.8-8.3-4.4-13.7l2.1-107l-11.6-17.8c5.1-3,10.5-5.4,16.2-7.3c5.6-1.9,11.7-3,18.3-3.4v141.2l19-1.9
			c-0.4,4.7-1.7,8.6-3.7,11.8c-2.1,3.1-4.6,5.5-7.5,7C1662.1-276.3,1659-275.5,1655.7-275.5z M1642.9-437.8l-0.2-0.2h0.2V-437.8z"/>
	</g>
</g>
<g>
	<path class="st0" d="M41.7,49.7c-5.9-1.2-11.8-2.6-17.5-4.3c-5.8-1.7-11.4-3.9-17-6.5V28.7h70.4v10.1L41.7,49.7z M69.1,189.7
		L18,31.2h33.8l41,144.5h-5.2l39.5-134.4l14.3,18.8l-39.3,129.7H69.1z M138.3,49.7c-6.1-1.2-12.1-2.6-18-4.3
		c-5.9-1.7-11.9-3.9-17.8-6.5V28.7h67.7v10.1L138.3,49.7z M163.2,189.7L116.3,31.2h28.4l41.7,144.5h-5.2L224,31.2h23.5l-51.4,158.6
		H163.2z M235.6,49.7c-6.8-1.2-13.5-2.6-20.3-4.3c-6.8-1.7-13.4-3.9-20-6.5V28.7h63.7v10.1L235.6,49.7z"/>
	<path class="st0" d="M301.3,192.2c-10.5,0-19.7-2.5-27.5-7.5c-7.8-5-13.9-12.1-18.3-21.2c-4.4-9.1-6.5-19.9-6.5-32.2
		c0-12.7,2.3-23.8,6.9-33.3c4.6-9.5,11.1-17,19.5-22.4c8.4-5.3,18.3-8,29.6-8c9.5,0,17.7,1.9,24.6,5.7c6.8,3.8,12.2,9.1,16.1,15.9
		c3.9,6.8,5.8,14.9,5.8,24.3l-0.7,15.8c-10.2,1.6-19.8,3.1-28.8,4.3c-9,1.2-17.9,2.2-26.9,2.8c-9,0.7-18.6,1.2-29,1.5v-15.3l59-0.5
		l0.5-10.1c0-8.1-2.1-14.4-6.2-18.9c-4.1-4.5-9.9-6.8-17.3-6.8c-3,0-6,0.4-9.1,1.2c-3.1,0.8-6.2,2.1-9.1,3.7
		c-2.6,5.6-4.7,11.4-6.1,17.4c-1.4,6-2.1,12.1-2.1,18.2c0,14,3.3,24.7,10,32.2c6.7,7.5,16,11.2,28,11.2c10.5,0,22.6-2.8,36.3-8.4
		l2,5.4c-7.1,8.1-14.9,14.2-23.5,18.5C319.9,190.1,310.8,192.2,301.3,192.2z"/>
	<path class="st0" d="M365,189.7v-8.6c2-1.3,4.1-2.5,6.4-3.6c2.3-1.1,5-2,8.2-2.8l3-135.4l-14.1-20.3c6.1-3.6,12.5-6.5,19.1-8.6
		c6.7-2.1,13.7-3.5,21.1-4v168.7l15.3,5.2v9.4H365z"/>
	<path class="st0" d="M487,192.2c-10,0-18.9-2.6-26.6-7.8c-7.7-5.2-13.6-12.4-17.8-21.6c-4.2-9.2-6.3-19.8-6.3-31.9
		c0-13.3,2.4-24.7,7.3-34.2c4.9-9.5,11.6-16.8,20.4-21.9c8.7-5.1,18.9-7.7,30.4-7.7c5.6,0,11.2,0.6,16.9,1.7
		c5.7,1.2,11.2,2.9,16.4,5.2l-4,20.7c-12.3-4.9-25.6-7.4-39.8-7.4c-3.8,0-7.5,0.5-11,1.5c-3.5,1-7,2.3-10.3,4l12.4-10.4
		c-3.3,7.1-5.8,14.3-7.4,21.7c-1.6,7.4-2.5,14.7-2.5,22c0,9.2,1.4,17.1,4.3,23.6c2.9,6.5,7,11.4,12.2,14.8
		c5.3,3.4,11.4,5.1,18.5,5.1c4.3,0,8.8-0.6,13.6-1.9c4.8-1.2,9.8-3.1,15.1-5.6l2,4.9C519.3,183.9,504.7,192.2,487,192.2z
		 M516.4,112.4l-13.6-38.3h24.9l-0.5,38.3H516.4z"/>
	<path class="st0" d="M593.7,192.2c-11.2,0-20.9-2.5-29-7.4c-8.2-4.9-14.4-12-18.8-21.1c-4.4-9.1-6.5-19.9-6.5-32.2
		c0-13,2.3-24.3,6.9-34c4.6-9.6,11.2-17.1,19.9-22.4c8.6-5.3,18.7-7.9,30.3-7.9c11.4,0,21.2,2.5,29.5,7.4
		c8.3,4.9,14.7,11.9,19.1,20.9c4.4,9,6.7,19.6,6.7,32c0,13.2-2.3,24.6-7,34.3c-4.7,9.7-11.4,17.2-20.1,22.5
		C615.9,189.6,605.6,192.2,593.7,192.2z M595.5,174.4c5.6,0,10.5-1.6,14.6-4.9c4.1-3.3,7.3-8.3,9.5-15.1c2.2-6.8,3.3-15.1,3.3-24.9
		c0-9.7-1.1-17.7-3.3-24.1c-2.2-6.3-5.4-11.2-9.6-14.4c-4.2-3.3-9.3-4.9-15.4-4.9c-4.1,0-8.7,0.8-13.8,2.3c-5.1,1.6-11.3,3.9-18.5,7
		L578.7,84c-3.5,7.1-6.1,14.3-7.8,21.7c-1.7,7.4-2.6,15.6-2.6,24.5c0,9.9,1.1,18.1,3.3,24.6c2.2,6.5,5.3,11.4,9.4,14.7
		C585,172.8,589.9,174.4,595.5,174.4z"/>
	<path class="st0" d="M664.6,189.7v-8.6c2-1.3,4.1-2.5,6.3-3.6c2.2-1.1,4.9-2,8-2.8l2.5-76.3l-13.3-18.8
		c11.9-6.9,24.4-11.1,37.5-12.6l2.7,28.4v79.8l15.3,5.2v9.4H664.6z M755,100.8c-7.6-5.9-15.6-8.9-24-8.9c-8.2,0-16.4,3-24.5,9.1
		l-0.7-4.9c4.3-5.9,8.8-11.2,13.6-15.9c4.8-4.7,9.9-8.8,15.3-12.2c1.3-0.2,2.6-0.3,3.8-0.4c1.2-0.1,2.4-0.1,3.6-0.1
		c8.6,0,16.3,1.9,23.1,5.7c6.8,3.8,13,9.9,18.4,18.3L755,100.8z M738.2,189.7v-8.6c1.8-1.3,3.9-2.6,6.2-3.7c2.3-1.2,5-2.1,8.2-2.7
		l2.5-73.9l28.7-9.4l-2,4.7v79l15.6,5.2v9.4H738.2z M828.4,100.8c-7.4-5.9-15.3-8.9-23.7-8.9c-8.2,0-16.5,3-24.7,9.1l-0.7-4.9
		c4.3-5.9,8.8-11.2,13.6-15.9c4.8-4.7,9.9-8.8,15.3-12.2c1.3-0.2,2.6-0.3,3.8-0.4c1.2-0.1,2.4-0.1,3.6-0.1c8.1,0,15.4,1.6,22,4.9
		c6.6,3.3,12.4,8.5,17.5,15.6L828.4,100.8z M811.6,189.7v-8.6c1.8-1.3,3.9-2.6,6.2-3.7c2.3-1.2,5-2.1,8.2-2.7l2.5-73.9L855.1,88
		v87.2l15.6,5.2v9.4H811.6z"/>
	<path class="st0" d="M933.6,192.2c-10.5,0-19.7-2.5-27.5-7.5c-7.8-5-13.9-12.1-18.3-21.2c-4.4-9.1-6.5-19.9-6.5-32.2
		c0-12.7,2.3-23.8,6.9-33.3c4.6-9.5,11.1-17,19.5-22.4c8.4-5.3,18.3-8,29.6-8c9.5,0,17.7,1.9,24.6,5.7c6.8,3.8,12.2,9.1,16.1,15.9
		c3.9,6.8,5.8,14.9,5.8,24.3l-0.7,15.8c-10.2,1.6-19.8,3.1-28.8,4.3c-9,1.2-18,2.2-26.9,2.8c-9,0.7-18.6,1.2-29,1.5v-15.3l59-0.5
		l0.5-10.1c0-8.1-2.1-14.4-6.2-18.9c-4.1-4.5-9.9-6.8-17.3-6.8c-3,0-6,0.4-9.1,1.2c-3.1,0.8-6.2,2.1-9.1,3.7
		c-2.6,5.6-4.7,11.4-6.1,17.4c-1.4,6-2.1,12.1-2.1,18.2c0,14,3.3,24.7,10,32.2c6.7,7.5,16,11.2,28,11.2c10.5,0,22.6-2.8,36.3-8.4
		l2,5.4c-7.1,8.1-14.9,14.2-23.5,18.5C952.2,190.1,943.2,192.2,933.6,192.2z"/>
</g>
</svg>
