<?xml version="1.0" encoding="utf-8"?>
<!-- Generator: Adobe Illustrator 28.4.1, SVG Export Plug-In . SVG Version: 6.00 Build 0)  -->
<svg version="1.1" id="Layer_1" xmlns="http://www.w3.org/2000/svg" xmlns:xlink="http://www.w3.org/1999/xlink" x="0px" y="0px"
	 viewBox="0 0 1000 169.6" style="enable-background:new 0 0 1000 169.6;" xml:space="preserve">
<style type="text/css">
	.st0{fill:#FFFFFF;}
</style>
<g>
	<g>
		<path class="st0" d="M24.8,165.3v-7.5c1.9-1.1,3.8-2.2,5.9-3.2c2.1-1,4.2-1.8,6.5-2.4l2.1-66.1L27.8,69.8
			c5.3-3.1,10.8-5.6,16.6-7.5c5.8-1.9,11.9-3,18.3-3.4v93.7l13.3,4.5v8.1H24.8z M54.4,9.3c3.1,2.7,5.8,5.9,7.9,9.6
			c2.1,3.7,3.5,7.5,4.1,11.3c-2.4,2.9-5.6,5.4-9.4,7.6c-3.9,2.2-7.7,3.6-11.6,4.2c-2.9-2.4-5.4-5.5-7.6-9.3
			c-2.2-3.8-3.7-7.7-4.4-11.7c2.7-2.9,5.9-5.4,9.5-7.6C46.5,11.2,50.4,9.8,54.4,9.3z"/>
		<path class="st0" d="M85.2,165.3v-7.5c1.7-1.1,3.5-2.2,5.5-3.1c1.9-0.9,4.2-1.7,7-2.5l2.1-66.1L88.2,69.8
			c10.3-6,21.1-9.6,32.5-10.9l2.4,24.6v69.1l13.3,4.5v8.1H85.2z M121.5,88.4l-0.6-4.3c3.7-5.1,7.6-9.7,11.8-13.8
			c4.1-4.1,8.6-7.6,13.3-10.6c1.1-0.1,2.2-0.2,3.3-0.3c1.1-0.1,2.1-0.1,3.1-0.1c7,0,13.3,1.4,19,4.3c5.7,2.9,10.8,7.3,15.2,13.5
			l-23.1,11.1c-6.6-5.1-13.5-7.7-20.8-7.7C135.6,80.5,128.5,83.2,121.5,88.4z M148.9,165.3v-7.5c1.6-1.1,3.4-2.2,5.3-3.2
			c2-1,4.4-1.8,7.1-2.4l2.1-64l23.1-11.1v75.5l13.5,4.5v8.1H148.9z"/>
		<path class="st0" d="M208,165.3v-7.5c1.7-1.1,3.5-2.2,5.5-3.1c1.9-0.9,4.2-1.7,7-2.5l2.1-66.1L211,69.8c10.3-6,21.1-9.6,32.5-10.9
			l2.4,24.6v69.1l13.3,4.5v8.1H208z M286.3,88.2c-6.6-5.1-13.5-7.7-20.8-7.7c-7.1,0-14.2,2.6-21.2,7.9l-0.6-4.3
			c3.7-5.1,7.6-9.7,11.8-13.8c4.1-4.1,8.6-7.6,13.3-10.6c1.1-0.1,2.2-0.2,3.3-0.3c1.1-0.1,2.1-0.1,3.1-0.1c7.4,0,14.1,1.6,20,4.9
			c5.9,3.3,11.2,8.6,15.9,15.8L286.3,88.2z M271.8,165.3v-7.5c1.6-1.1,3.4-2.2,5.3-3.2c2-1,4.4-1.8,7.1-2.4l2.1-64l24.8-8.1
			l-1.7,4.1v68.5l13.5,4.5v8.1H271.8z M349.9,88.2c-6.4-5.1-13.3-7.7-20.5-7.7c-7.1,0-14.3,2.6-21.4,7.9l-0.6-4.3
			c3.7-5.1,7.6-9.7,11.8-13.8c4.1-4.1,8.6-7.6,13.3-10.6c1.1-0.1,2.2-0.2,3.3-0.3c1.1-0.1,2.1-0.1,3.1-0.1c7,0,13.3,1.4,19,4.3
			c5.7,2.9,10.8,7.3,15.2,13.5L349.9,88.2z M335.3,165.3v-7.5c1.6-1.1,3.4-2.2,5.4-3.2c2-1,4.4-1.8,7.1-2.4l2.1-64L373,77.1v75.5
			l13.5,4.5v8.1H335.3z"/>
		<path class="st0" d="M381.3,203.6l1.5-17.1l40.9,2.8c3.6-4.4,6.5-8.6,8.9-12.5c2.4-3.9,4.5-8.1,6.3-12.5c1.9-4.4,3.7-9.5,5.6-15.2
			l27.6-85.6h18.2l-31.7,90.5c-6.4,18.4-14,32-22.7,40.9c-8.7,8.8-19.1,13.3-31.2,13.3c-3.4,0-7.1-0.4-11-1.2
			C389.7,206.1,385.6,205,381.3,203.6z M411.3,79.2c-4.6-0.9-9-2.1-13.3-3.6c-4.3-1.6-8.5-3.6-12.6-6v-8.3h49.2v8.3L411.3,79.2z
			 M427.1,164L391.8,63.4h27.6l29.5,95.9L427.1,164z M482.1,79.2c-5-0.9-10-2.1-15-3.6c-5-1.6-9.8-3.6-14.3-6v-8.3h42.8v8.3
			L482.1,79.2z"/>
		<path class="st0" d="M497.3,165.3v-7.5c1.7-1.1,3.5-2.2,5.5-3.1c1.9-0.9,4.2-1.7,7-2.5l2.1-66.1l-11.6-16.3
			c10.3-6,21.1-9.6,32.5-10.9l2.4,24.6v69.1l13.3,4.5v8.1H497.3z M575.6,88.2c-6.6-5.1-13.5-7.7-20.8-7.7c-7.1,0-14.2,2.6-21.2,7.9
			l-0.6-4.3c3.7-5.1,7.6-9.7,11.8-13.8c4.1-4.1,8.6-7.6,13.3-10.6c1.1-0.1,2.2-0.2,3.3-0.3c1.1-0.1,2.1-0.1,3.1-0.1
			c7.4,0,14.1,1.6,20,4.9c5.9,3.3,11.2,8.6,15.9,15.8L575.6,88.2z M561.1,165.3v-7.5c1.6-1.1,3.4-2.2,5.3-3.2c2-1,4.4-1.8,7.1-2.4
			l2.1-64l24.8-8.1l-1.7,4.1v68.5l13.5,4.5v8.1H561.1z M639.2,88.2c-6.4-5.1-13.3-7.7-20.5-7.7c-7.1,0-14.3,2.6-21.4,7.9l-0.6-4.3
			c3.7-5.1,7.6-9.7,11.8-13.8c4.1-4.1,8.6-7.6,13.3-10.6c1.1-0.1,2.2-0.2,3.3-0.3c1.1-0.1,2.1-0.1,3.1-0.1c7,0,13.3,1.4,19,4.3
			c5.7,2.9,10.8,7.3,15.2,13.5L639.2,88.2z M624.7,165.3v-7.5c1.6-1.1,3.4-2.2,5.4-3.2c2-1,4.3-1.8,7.1-2.4l2.1-64l23.1-11.1v75.5
			l13.5,4.5v8.1H624.7z"/>
		<path class="st0" d="M683.7,165.3v-7.5c1.9-1.1,3.8-2.2,5.9-3.2c2.1-1,4.2-1.8,6.5-2.4l2.1-66.1l-11.6-16.3
			c5.3-3.1,10.8-5.6,16.6-7.5c5.8-1.9,11.9-3,18.3-3.4v93.7l13.3,4.5v8.1H683.7z M713.2,9.3c3.1,2.7,5.8,5.9,7.9,9.6
			c2.1,3.7,3.5,7.5,4.1,11.3c-2.4,2.9-5.6,5.4-9.4,7.6c-3.9,2.2-7.7,3.6-11.6,4.2c-2.9-2.4-5.4-5.5-7.6-9.3
			c-2.2-3.8-3.7-7.7-4.4-11.7c2.7-2.9,5.9-5.4,9.5-7.6C705.4,11.2,709.3,9.8,713.2,9.3z"/>
		<path class="st0" d="M744.1,165.3v-7.5c1.7-1.1,3.5-2.2,5.5-3.1c1.9-0.9,4.2-1.7,7-2.5l2.1-66.1l-11.6-16.3
			c10.3-6,21.1-9.6,32.5-10.9l2.4,24.6v69.1l13.3,4.5v8.1H744.1z M780.4,88.4l-0.6-4.3c3.7-5.1,7.6-9.7,11.8-13.8
			c4.1-4.1,8.6-7.6,13.3-10.6c1.1-0.1,2.2-0.2,3.3-0.3c1.1-0.1,2.1-0.1,3.1-0.1c7,0,13.3,1.4,19,4.3c5.7,2.9,10.8,7.3,15.2,13.5
			l-23.1,11.1c-6.6-5.1-13.5-7.7-20.8-7.7C794.5,80.5,787.4,83.2,780.4,88.4z M807.8,165.3v-7.5c1.6-1.1,3.4-2.2,5.3-3.2
			c2-1,4.4-1.8,7.1-2.4l2.1-64l23.1-11.1v75.5l13.5,4.5v8.1H807.8z"/>
		<path class="st0" d="M910.3,167.2c-8.4,0-15.8-2.1-22.1-6.4c-6.3-4.3-11.3-10.3-14.8-18.1c-3.5-7.8-5.2-16.9-5.2-27.3
			c0-17.8,4.9-31.7,14.8-41.5c9.8-9.8,23-14.8,39.6-14.8c4.8,0,9.9,0.4,15.2,1.3c5.3,0.9,10.7,2.1,16.3,3.9l-3.2,21.2
			c-12.3-6.4-24.1-9.6-35.5-9.6c-4.3,0-8.4,0.5-12.3,1.5c-3.9,1-7.8,2.5-11.7,4.5l9.8-6.4c-2.7,5.1-4.8,11-6.3,17.4
			c-1.5,6.5-2.2,13.2-2.2,20.2c0,7.3,1,13.3,2.9,18.2c1.9,4.9,4.7,8.5,8.2,10.9c3.6,2.4,7.7,3.6,12.4,3.6c3.3,0,6.7-0.6,10.3-1.8
			c3.6-1.2,7.3-3,11.1-5.5v5.1c-3.1,4.3-6.7,8.5-10.6,12.5c-3.9,4.1-8.2,7.7-12.7,10.8c-0.7,0-1.4,0-1.9,0.1
			C911.7,167.1,911.1,167.2,910.3,167.2z M959.1,166.8c-3.6,0-7.1-0.9-10.5-2.8s-6.3-4.6-8.7-8.3c-2.4-3.7-3.8-8.3-4.4-13.7l2.1-107
			l-11.6-17.8c5.1-3,10.5-5.4,16.2-7.3c5.6-1.9,11.7-3,18.3-3.4v141.2l19-1.9c-0.4,4.7-1.7,8.6-3.7,11.8c-2.1,3.1-4.6,5.5-7.5,7
			C965.5,166,962.4,166.8,959.1,166.8z M946.3,4.5l-0.2-0.2h0.2V4.5z"/>
	</g>
</g>
</svg>
