<?xml version="1.0" encoding="utf-8"?>
<!-- Generator: Adobe Illustrator 28.4.1, SVG Export Plug-In . SVG Version: 6.00 Build 0)  -->
<svg version="1.1" id="Livello_1" xmlns="http://www.w3.org/2000/svg" xmlns:xlink="http://www.w3.org/1999/xlink" x="0px" y="0px"
	 viewBox="0 0 1000 500" style="enable-background:new 0 0 1000 500;" xml:space="preserve">
<g>
	<path d="M240.8,494.2v-4.1c1-0.6,2.1-1.2,3.2-1.8c1.1-0.5,2.3-1,3.6-1.3l1.2-36.2l-6.3-8.9c2.9-1.7,5.9-3.1,9.1-4.1
		c3.2-1,6.5-1.6,10-1.9v51.2l7.3,2.5v4.4H240.8z M257,408.9c1.7,1.5,3.2,3.2,4.3,5.3c1.2,2,1.9,4.1,2.2,6.2c-1.3,1.6-3,2.9-5.1,4.2
		c-2.1,1.2-4.2,2-6.3,2.3c-1.6-1.3-2.9-3-4.2-5.1c-1.2-2.1-2-4.2-2.4-6.4c1.5-1.6,3.2-2.9,5.2-4.2C252.7,410,254.8,409.2,257,408.9z
		"/>
	<path d="M273.8,494.2v-4.1c0.9-0.6,1.9-1.2,3-1.7c1.1-0.5,2.3-1,3.8-1.3l1.2-36.2l-6.3-8.9c5.6-3.3,11.5-5.3,17.8-6l1.3,13.5v37.8
		l7.3,2.5v4.4H273.8z M293.7,452.2l-0.4-2.3c2-2.8,4.2-5.3,6.4-7.5c2.3-2.2,4.7-4.2,7.3-5.8c0.6-0.1,1.2-0.1,1.8-0.2
		c0.6,0,1.1-0.1,1.7-0.1c3.8,0,7.3,0.8,10.4,2.3c3.1,1.6,5.9,4,8.3,7.4l-12.6,6.1c-3.6-2.8-7.4-4.2-11.3-4.2
		C301.4,447.9,297.6,449.3,293.7,452.2z M308.7,494.2v-4.1c0.9-0.6,1.8-1.2,2.9-1.8c1.1-0.5,2.4-1,3.9-1.3l1.2-35l12.6-6.1v41.3
		l7.4,2.5v4.4H308.7z"/>
	<path d="M341,494.2v-4.1c0.9-0.6,1.9-1.2,3-1.7c1.1-0.5,2.3-1,3.8-1.3l1.2-36.2l-6.3-8.9c5.6-3.3,11.5-5.3,17.8-6l1.3,13.5v37.8
		l7.3,2.5v4.4H341z M383.8,452.1c-3.6-2.8-7.4-4.2-11.3-4.2c-3.9,0-7.8,1.4-11.6,4.3l-0.4-2.3c2-2.8,4.2-5.3,6.4-7.5
		c2.3-2.2,4.7-4.2,7.3-5.8c0.6-0.1,1.2-0.1,1.8-0.2c0.6,0,1.1-0.1,1.7-0.1c4.1,0,7.7,0.9,10.9,2.7c3.2,1.8,6.1,4.7,8.7,8.7
		L383.8,452.1z M375.9,494.2v-4.1c0.9-0.6,1.8-1.2,2.9-1.8c1.1-0.5,2.4-1,3.9-1.3l1.2-35l13.6-4.4l-0.9,2.2v37.4l7.4,2.5v4.4H375.9z
		 M418.6,452.1c-3.5-2.8-7.3-4.2-11.2-4.2c-3.9,0-7.8,1.4-11.7,4.3l-0.4-2.3c2-2.8,4.2-5.3,6.4-7.5c2.3-2.2,4.7-4.2,7.3-5.8
		c0.6-0.1,1.2-0.1,1.8-0.2c0.6,0,1.1-0.1,1.7-0.1c3.8,0,7.3,0.8,10.4,2.3c3.1,1.6,5.9,4,8.3,7.4L418.6,452.1z M410.6,494.2v-4.1
		c0.9-0.6,1.8-1.2,2.9-1.8c1.1-0.5,2.4-1,3.9-1.3l1.2-35l12.6-6.1v41.3l7.4,2.5v4.4H410.6z"/>
	<path d="M434.5,515.1l0.8-9.4l22.3,1.5c1.9-2.4,3.6-4.7,4.9-6.8c1.3-2.1,2.4-4.4,3.5-6.8c1-2.4,2-5.2,3-8.3l15.1-46.8h9.9
		L476.7,488c-3.5,10.1-7.6,17.5-12.4,22.3c-4.8,4.8-10.5,7.3-17.1,7.3c-1.9,0-3.9-0.2-6-0.6C439.1,516.5,436.8,515.9,434.5,515.1z
		 M450.9,447.2c-2.5-0.5-4.9-1.1-7.3-2c-2.3-0.9-4.6-1.9-6.9-3.3v-4.6h26.9v4.6L450.9,447.2z M459.5,493.5l-19.3-55h15.1l16.1,52.4
		L459.5,493.5z M489.6,447.2c-2.7-0.5-5.5-1.1-8.2-2c-2.7-0.9-5.3-1.9-7.8-3.3v-4.6H497v4.6L489.6,447.2z"/>
	<path d="M540.7,452.1c-3.6-2.8-7.4-4.2-11.3-4.2c-3.9,0-7.8,1.4-11.6,4.3l-0.4-2.3c2-2.8,4.2-5.3,6.4-7.5c2.3-2.2,4.7-4.2,7.3-5.8
		c0.6-0.1,1.2-0.1,1.8-0.2c0.6,0,1.1-0.1,1.7-0.1c4.1,0,7.7,0.9,10.9,2.7c3.2,1.8,6.1,4.7,8.7,8.7L540.7,452.1z"/>
	<path d="M532.8,494.2v-4.1c0.9-0.6,1.8-1.2,2.9-1.8c1.1-0.5,2.4-1,3.9-1.3l1.2-35l13.6-4.4l-0.9,2.2v37.4l7.4,2.5v4.4H532.8z"/>
	<path d="M575.5,452.1c-3.5-2.8-7.3-4.2-11.2-4.2c-3.9,0-7.8,1.4-11.7,4.3l-0.4-2.3c2-2.8,4.2-5.3,6.4-7.5c2.3-2.2,4.7-4.2,7.3-5.8
		c0.6-0.1,1.2-0.1,1.8-0.2c0.6,0,1.1-0.1,1.7-0.1c3.8,0,7.3,0.8,10.4,2.3c3.1,1.6,5.9,4,8.3,7.4L575.5,452.1z"/>
	<path d="M567.5,494.2v-4.1c0.9-0.6,1.8-1.2,2.9-1.8c1.1-0.5,2.4-1,3.9-1.3l1.2-35l12.6-6.1v41.3l7.4,2.5v4.4H567.5z"/>
	<path d="M503.4,437.3l2.4,13.6l-0.5,15.8l-0.7,20.4c-1.5,0.4-2.8,0.8-3.8,1.3c-1,0.5-2,1.1-3,1.7v4.1h28v-4.5l-7.3-2.5l0-50
		c-1.8-0.5-4.1-0.9-6.9-1C508.3,436.2,505.5,436.8,503.4,437.3z"/>
	<path d="M599.8,494.2v-4.1c1-0.6,2.1-1.2,3.2-1.8c1.1-0.5,2.3-1,3.6-1.3l1.2-36.2l-6.3-8.9c2.9-1.7,5.9-3.1,9.1-4.1
		c3.2-1,6.5-1.6,10-1.9v51.2l7.3,2.5v4.4H599.8z"/>
	<path d="M632.8,494.2v-4.1c0.9-0.6,1.9-1.2,3-1.7c1.1-0.5,2.3-1,3.8-1.3l1.2-36.2l-6.3-8.9c5.6-3.3,11.5-5.3,17.8-6l1.3,13.5v37.8
		l7.3,2.5v4.4H632.8z M652.7,452.2l-0.4-2.3c2-2.8,4.2-5.3,6.4-7.5c2.3-2.2,4.7-4.2,7.3-5.8c0.6-0.1,1.2-0.1,1.8-0.2
		c0.6,0,1.1-0.1,1.7-0.1c3.8,0,7.3,0.8,10.4,2.3c3.1,1.6,5.9,4,8.3,7.4l-12.6,6.1c-3.6-2.8-7.4-4.2-11.3-4.2
		C660.4,447.9,656.5,449.3,652.7,452.2z M667.7,494.2v-4.1c0.9-0.6,1.8-1.2,2.9-1.8c1.1-0.5,2.4-1,3.9-1.3l1.2-35l12.6-6.1v41.3
		l7.4,2.5v4.4H667.7z"/>
	<path d="M723.7,495.2c-4.6,0-8.6-1.2-12.1-3.5c-3.5-2.3-6.2-5.6-8.1-9.9c-1.9-4.2-2.9-9.2-2.9-14.9c0-9.8,2.7-17.3,8.1-22.7
		s12.6-8.1,21.6-8.1c2.7,0,5.4,0.2,8.3,0.7c2.9,0.5,5.8,1.2,8.9,2.1l-1.8,11.6c-6.7-3.5-13.2-5.3-19.4-5.3c-2.3,0-4.6,0.3-6.7,0.8
		c-2.1,0.5-4.3,1.4-6.4,2.5l5.4-3.5c-1.5,2.8-2.6,6-3.5,9.5c-0.8,3.5-1.2,7.2-1.2,11.1c0,4,0.5,7.3,1.6,9.9c1.1,2.7,2.6,4.6,4.5,6
		c1.9,1.3,4.2,2,6.8,2c1.8,0,3.7-0.3,5.6-1c1.9-0.7,4-1.7,6.1-3v2.8c-1.7,2.3-3.6,4.6-5.8,6.8c-2.1,2.2-4.5,4.2-7,5.9
		c-0.4,0-0.7,0-1.1,0.1C724.4,495.2,724.1,495.2,723.7,495.2z M750.4,495c-2,0-3.9-0.5-5.7-1.5s-3.5-2.5-4.7-4.6
		c-1.3-2-2.1-4.5-2.4-7.5l1.2-58.5l-6.3-9.7c2.8-1.6,5.8-3,8.8-4c3.1-1,6.4-1.6,10-1.9v77.2l10.4-1.1c-0.2,2.6-0.9,4.7-2,6.4
		c-1.1,1.7-2.5,3-4.1,3.8C753.9,494.6,752.2,495,750.4,495z M743.4,406.3l-0.1-0.1h0.1V406.3z"/>
</g>
<circle cx="613.5" cy="417.8" r="9.1"/>
</svg>
