<?xml version="1.0" encoding="utf-8"?>
<!-- Generator: Adobe Illustrator 28.4.1, SVG Export Plug-In . SVG Version: 6.00 Build 0)  -->
<svg version="1.1" id="Livello_1" xmlns="http://www.w3.org/2000/svg" xmlns:xlink="http://www.w3.org/1999/xlink" x="0px" y="0px"
	 viewBox="0 0 1000 500" style="enable-background:new 0 0 1000 500;" xml:space="preserve">
<style type="text/css">
	.st0{fill:#59591D;}
	.st1{fill:#302721;}
	.st2{fill:#3F332C;}
	.st3{fill:#5F554F;}
	.st4{fill:#40342D;}
	.st5{fill:#41352E;}
	.st6{fill:#42362F;}
	.st7{fill:#433730;}
	.st8{fill:#443831;}
	.st9{fill:#443932;}
	.st10{fill:#453A33;}
	.st11{fill:#463B34;}
	.st12{fill:#473C35;}
	.st13{fill:#483D36;}
	.st14{fill:#493E37;}
	.st15{fill:#4A3F38;}
	.st16{fill:#4B4039;}
	.st17{fill:#4C413A;}
	.st18{fill:#4D423B;}
	.st19{fill:#4E423C;}
	.st20{fill:#4E433D;}
	.st21{fill:#4F443E;}
	.st22{fill:#50453F;}
	.st23{fill:#514640;}
	.st24{fill:#524741;}
	.st25{fill:#534842;}
	.st26{fill:#544943;}
	.st27{fill:#554A44;}
	.st28{fill:#564B45;}
	.st29{fill:#574C46;}
	.st30{fill:#584D47;}
	.st31{fill:#584E48;}
	.st32{fill:#594F49;}
	.st33{fill:#5A504A;}
	.st34{fill:#5B514B;}
	.st35{fill:#5C524C;}
	.st36{fill:#5D534D;}
	.st37{fill:#5E544E;}
	.st38{fill:#605650;}
	.st39{fill:#615751;}
	.st40{fill:#625852;}
	.st41{fill:#625953;}
	.st42{fill:#635A54;}
	.st43{fill:#645B55;}
	.st44{fill:#655C56;}
	.st45{fill:#665D57;}
	.st46{fill:#675E58;}
	.st47{fill:#685F59;}
	.st48{fill:#695F5A;}
	.st49{fill:#6A605B;}
	.st50{fill:#6B615C;}
	.st51{fill:#6C625D;}
	.st52{fill:#6C635E;}
	.st53{fill:#6D645F;}
	.st54{fill:#6E6560;}
	.st55{fill:#6F6661;}
	.st56{fill:#706762;}
	.st57{fill:#716863;}
	.st58{fill:#726964;}
	.st59{fill:#736A65;}
	.st60{fill:#746B66;}
	.st61{fill:#756C67;}
	.st62{fill:#766D68;}
	.st63{fill:#776E69;}
	.st64{fill:#776F6A;}
	.st65{fill:#78706B;}
	.st66{fill:#79716C;}
	.st67{fill:#7A726D;}
	.st68{fill:#7B736E;}
	.st69{fill:#7C746F;}
	.st70{fill:#7D7570;}
	.st71{fill:#7E7671;}
	.st72{fill:#7F7772;}
	.st73{fill:#807873;}
	.st74{fill:#817974;}
	.st75{fill:#817A75;}
	.st76{fill:#827B76;}
	.st77{fill:#837C77;}
	.st78{fill:#847C78;}
	.st79{fill:#857D79;}
	.st80{fill:#867E7A;}
	.st81{fill:#877F7B;}
	.st82{fill:#88807C;}
	.st83{fill:#89817D;}
	.st84{fill:#8A827E;}
	.st85{fill:#8B837F;}
	.st86{fill:#8B8480;}
	.st87{fill:#8C8581;}
	.st88{fill:#8D8682;}
	.st89{fill:#8E8783;}
	.st90{fill:#8F8884;}
	.st91{fill:#908985;}
	.st92{fill:#918A86;}
	.st93{fill:#928B87;}
	.st94{fill:#938C88;}
	.st95{fill:#948D89;}
	.st96{fill:#958E8A;}
	.st97{fill:#958F8B;}
	.st98{fill:#96908C;}
	.st99{fill:#97918D;}
	.st100{fill:#98928E;}
	.st101{fill:#99938F;}
	.st102{fill:#9A9490;}
	.st103{fill:#9B9591;}
	.st104{fill:#9C9692;}
	.st105{fill:#9D9793;}
	.st106{fill:#9E9894;}
	.st107{fill:#9F9995;}
	.st108{fill:#9F9996;}
	.st109{fill:#A09A97;}
	.st110{fill:#A19B98;}
	.st111{fill:#A29C99;}
	.st112{fill:#A39D9A;}
	.st113{fill:#A49E9B;}
	.st114{fill:#A59F9C;}
	.st115{fill:#A6A09D;}
	.st116{fill:#A7A19E;}
	.st117{fill:#A8A29F;}
	.st118{fill:#A9A3A0;}
	.st119{fill:#A9A4A1;}
	.st120{fill:#AAA5A2;}
	.st121{fill:#ABA6A3;}
	.st122{fill:#ACA7A4;}
	.st123{fill:#ADA8A5;}
	.st124{fill:#AEA9A6;}
	.st125{fill:#AFAAA7;}
	.st126{fill:#B0ABA8;}
	.st127{fill:#B1ACA9;}
	.st128{fill:#B2ADAA;}
	.st129{fill:#B3AEAB;}
	.st130{fill:#B3AFAC;}
	.st131{fill:#B4B0AD;}
	.st132{fill:#B5B1AE;}
	.st133{fill:#B6B2AF;}
	.st134{fill:#B7B3B0;}
	.st135{fill:#B8B4B1;}
	.st136{fill:#B9B5B2;}
	.st137{fill:#BAB6B3;}
	.st138{fill:#BBB6B4;}
	.st139{fill:#BCB7B5;}
	.st140{fill:#BDB8B6;}
	.st141{fill:#BDB9B7;}
	.st142{fill:#BEBAB8;}
	.st143{fill:#BFBBB9;}
	.st144{fill:#C0BCBA;}
	.st145{fill:#C1BDBB;}
	.st146{fill:#C2BEBC;}
	.st147{fill:#C3BFBD;}
	.st148{fill:#C4C0BE;}
	.st149{fill:#C5C1BF;}
	.st150{fill:#C6C2C0;}
	.st151{fill:#C7C3C1;}
	.st152{fill:#C7C4C2;}
	.st153{fill:#C8C5C3;}
	.st154{fill:#C9C6C4;}
	.st155{fill:#CAC7C5;}
	.st156{fill:#CBC8C6;}
	.st157{fill:#CCC9C7;}
	.st158{fill:#CDCAC8;}
	.st159{fill:#CECBC9;}
	.st160{fill:#CFCCCA;}
	.st161{fill:#D0CDCB;}
	.st162{fill:#D1CECC;}
	.st163{fill:#D2CFCD;}
	.st164{fill:#D2D0CE;}
	.st165{fill:#D3D1CF;}
	.st166{fill:#D4D2D0;}
	.st167{fill:#D5D3D1;}
	.st168{fill:#D6D3D2;}
	.st169{fill:#D7D4D3;}
	.st170{fill:#D8D5D4;}
	.st171{fill:#D9D6D5;}
	.st172{fill:#DAD7D6;}
	.st173{fill:#DBD8D7;}
	.st174{fill:#DCD9D8;}
	.st175{fill:#DCDAD9;}
	.st176{fill:#DDDBDA;}
	.st177{fill:#DEDCDB;}
	.st178{fill:#DFDDDC;}
	.st179{fill:#E0DEDD;}
	.st180{fill:#E1DFDE;}
	.st181{fill:#E2E0DF;}
	.st182{fill:#E3E1E0;}
	.st183{fill:#E4E2E1;}
	.st184{fill:#E5E3E2;}
	.st185{fill:#E6E4E3;}
	.st186{fill:#E6E5E4;}
	.st187{fill:#E7E6E5;}
	.st188{fill:#E8E7E6;}
	.st189{fill:#E9E8E7;}
	.st190{fill:#EAE9E8;}
	.st191{fill:#EBEAE9;}
	.st192{fill:#ECEBEA;}
	.st193{fill:#EDECEB;}
	.st194{fill:#EEEDEC;}
	.st195{fill:#EFEEED;}
	.st196{fill:#F0EFEE;}
	.st197{fill:#F0F0EF;}
	.st198{fill:#F1F0F0;}
	.st199{fill:#F2F1F1;}
	.st200{fill:#F3F2F2;}
	.st201{fill:#F4F3F3;}
	.st202{fill:#F5F4F4;}
	.st203{fill:#F6F5F5;}
	.st204{fill:#F7F6F6;}
	.st205{fill:#F8F7F7;}
	.st206{fill:#F9F8F8;}
	.st207{fill:#FAF9F9;}
	.st208{fill:#FAFAFA;}
	.st209{fill:#FBFBFB;}
	.st210{fill:#FCFCFC;}
	.st211{fill:#FDFDFD;}
	.st212{fill:#FEFEFE;}
	.st213{fill:#FFFFFF;}
</style>
<g>
	<path d="M240.8,494.2v-4.1c1-0.6,2.1-1.2,3.2-1.8c1.1-0.5,2.3-1,3.6-1.3l1.2-36.2l-6.3-8.9c2.9-1.7,5.9-3.1,9.1-4.1
		c3.2-1,6.5-1.6,10-1.9v51.2l7.3,2.5v4.4H240.8z M257,408.9c1.7,1.5,3.2,3.2,4.3,5.3c1.2,2,1.9,4.1,2.2,6.2c-1.3,1.6-3,2.9-5.1,4.2
		c-2.1,1.2-4.2,2-6.3,2.3c-1.6-1.3-2.9-3-4.2-5.1c-1.2-2.1-2-4.2-2.4-6.4c1.5-1.6,3.2-2.9,5.2-4.2C252.7,410,254.8,409.2,257,408.9z
		"/>
	<path d="M273.8,494.2v-4.1c0.9-0.6,1.9-1.2,3-1.7c1.1-0.5,2.3-1,3.8-1.3l1.2-36.2l-6.3-8.9c5.6-3.3,11.5-5.3,17.8-6l1.3,13.5v37.8
		l7.3,2.5v4.4H273.8z M293.7,452.2l-0.4-2.3c2-2.8,4.2-5.3,6.4-7.5c2.3-2.2,4.7-4.2,7.3-5.8c0.6-0.1,1.2-0.1,1.8-0.2
		c0.6,0,1.1-0.1,1.7-0.1c3.8,0,7.3,0.8,10.4,2.3c3.1,1.6,5.9,4,8.3,7.4l-12.6,6.1c-3.6-2.8-7.4-4.2-11.3-4.2
		C301.4,447.9,297.6,449.3,293.7,452.2z M308.7,494.2v-4.1c0.9-0.6,1.8-1.2,2.9-1.8c1.1-0.5,2.4-1,3.9-1.3l1.2-35l12.6-6.1v41.3
		l7.4,2.5v4.4H308.7z"/>
	<path d="M341,494.2v-4.1c0.9-0.6,1.9-1.2,3-1.7c1.1-0.5,2.3-1,3.8-1.3l1.2-36.2l-6.3-8.9c5.6-3.3,11.5-5.3,17.8-6l1.3,13.5v37.8
		l7.3,2.5v4.4H341z M383.8,452.1c-3.6-2.8-7.4-4.2-11.3-4.2c-3.9,0-7.8,1.4-11.6,4.3l-0.4-2.3c2-2.8,4.2-5.3,6.4-7.5
		c2.3-2.2,4.7-4.2,7.3-5.8c0.6-0.1,1.2-0.1,1.8-0.2c0.6,0,1.1-0.1,1.7-0.1c4.1,0,7.7,0.9,10.9,2.7c3.2,1.8,6.1,4.7,8.7,8.7
		L383.8,452.1z M375.9,494.2v-4.1c0.9-0.6,1.8-1.2,2.9-1.8c1.1-0.5,2.4-1,3.9-1.3l1.2-35l13.6-4.4l-0.9,2.2v37.4l7.4,2.5v4.4H375.9z
		 M418.6,452.1c-3.5-2.8-7.3-4.2-11.2-4.2c-3.9,0-7.8,1.4-11.7,4.3l-0.4-2.3c2-2.8,4.2-5.3,6.4-7.5c2.3-2.2,4.7-4.2,7.3-5.8
		c0.6-0.1,1.2-0.1,1.8-0.2c0.6,0,1.1-0.1,1.7-0.1c3.8,0,7.3,0.8,10.4,2.3c3.1,1.6,5.9,4,8.3,7.4L418.6,452.1z M410.6,494.2v-4.1
		c0.9-0.6,1.8-1.2,2.9-1.8c1.1-0.5,2.4-1,3.9-1.3l1.2-35l12.6-6.1v41.3l7.4,2.5v4.4H410.6z"/>
	<path d="M434.5,515.1l0.8-9.4l22.3,1.5c1.9-2.4,3.6-4.7,4.9-6.8c1.3-2.1,2.4-4.4,3.5-6.8c1-2.4,2-5.2,3-8.3l15.1-46.8h9.9
		L476.7,488c-3.5,10.1-7.6,17.5-12.4,22.3c-4.8,4.8-10.5,7.3-17.1,7.3c-1.9,0-3.9-0.2-6-0.6C439.1,516.5,436.8,515.9,434.5,515.1z
		 M450.9,447.2c-2.5-0.5-4.9-1.1-7.3-2c-2.3-0.9-4.6-1.9-6.9-3.3v-4.6h26.9v4.6L450.9,447.2z M459.5,493.5l-19.3-55h15.1l16.1,52.4
		L459.5,493.5z M489.6,447.2c-2.7-0.5-5.5-1.1-8.2-2c-2.7-0.9-5.3-1.9-7.8-3.3v-4.6H497v4.6L489.6,447.2z"/>
	<path d="M540.7,452.1c-3.6-2.8-7.4-4.2-11.3-4.2c-3.9,0-7.8,1.4-11.6,4.3l-0.4-2.3c2-2.8,4.2-5.3,6.4-7.5c2.3-2.2,4.7-4.2,7.3-5.8
		c0.6-0.1,1.2-0.1,1.8-0.2c0.6,0,1.1-0.1,1.7-0.1c4.1,0,7.7,0.9,10.9,2.7c3.2,1.8,6.1,4.7,8.7,8.7L540.7,452.1z"/>
	<path d="M532.8,494.2v-4.1c0.9-0.6,1.8-1.2,2.9-1.8c1.1-0.5,2.4-1,3.9-1.3l1.2-35l13.6-4.4l-0.9,2.2v37.4l7.4,2.5v4.4H532.8z"/>
	<path d="M575.5,452.1c-3.5-2.8-7.3-4.2-11.2-4.2c-3.9,0-7.8,1.4-11.7,4.3l-0.4-2.3c2-2.8,4.2-5.3,6.4-7.5c2.3-2.2,4.7-4.2,7.3-5.8
		c0.6-0.1,1.2-0.1,1.8-0.2c0.6,0,1.1-0.1,1.7-0.1c3.8,0,7.3,0.8,10.4,2.3c3.1,1.6,5.9,4,8.3,7.4L575.5,452.1z"/>
	<path d="M567.5,494.2v-4.1c0.9-0.6,1.8-1.2,2.9-1.8c1.1-0.5,2.4-1,3.9-1.3l1.2-35l12.6-6.1v41.3l7.4,2.5v4.4H567.5z"/>
	<path d="M503.4,437.3l2.4,13.6l-0.5,15.8l-0.7,20.4c-1.5,0.4-2.8,0.8-3.8,1.3c-1,0.5-2,1.1-3,1.7v4.1h28v-4.5l-7.3-2.5l0-50
		c-1.8-0.5-4.1-0.9-6.9-1C508.3,436.2,505.5,436.8,503.4,437.3z"/>
	<path d="M599.8,494.2v-4.1c1-0.6,2.1-1.2,3.2-1.8c1.1-0.5,2.3-1,3.6-1.3l1.2-36.2l-6.3-8.9c2.9-1.7,5.9-3.1,9.1-4.1
		c3.2-1,6.5-1.6,10-1.9v51.2l7.3,2.5v4.4H599.8z"/>
	<path d="M632.8,494.2v-4.1c0.9-0.6,1.9-1.2,3-1.7c1.1-0.5,2.3-1,3.8-1.3l1.2-36.2l-6.3-8.9c5.6-3.3,11.5-5.3,17.8-6l1.3,13.5v37.8
		l7.3,2.5v4.4H632.8z M652.7,452.2l-0.4-2.3c2-2.8,4.2-5.3,6.4-7.5c2.3-2.2,4.7-4.2,7.3-5.8c0.6-0.1,1.2-0.1,1.8-0.2
		c0.6,0,1.1-0.1,1.7-0.1c3.8,0,7.3,0.8,10.4,2.3c3.1,1.6,5.9,4,8.3,7.4l-12.6,6.1c-3.6-2.8-7.4-4.2-11.3-4.2
		C660.4,447.9,656.5,449.3,652.7,452.2z M667.7,494.2v-4.1c0.9-0.6,1.8-1.2,2.9-1.8c1.1-0.5,2.4-1,3.9-1.3l1.2-35l12.6-6.1v41.3
		l7.4,2.5v4.4H667.7z"/>
	<path d="M723.7,495.2c-4.6,0-8.6-1.2-12.1-3.5c-3.5-2.3-6.2-5.6-8.1-9.9c-1.9-4.2-2.9-9.2-2.9-14.9c0-9.8,2.7-17.3,8.1-22.7
		s12.6-8.1,21.6-8.1c2.7,0,5.4,0.2,8.3,0.7c2.9,0.5,5.8,1.2,8.9,2.1l-1.8,11.6c-6.7-3.5-13.2-5.3-19.4-5.3c-2.3,0-4.6,0.3-6.7,0.8
		c-2.1,0.5-4.3,1.4-6.4,2.5l5.4-3.5c-1.5,2.8-2.6,6-3.5,9.5c-0.8,3.5-1.2,7.2-1.2,11.1c0,4,0.5,7.3,1.6,9.9c1.1,2.7,2.6,4.6,4.5,6
		c1.9,1.3,4.2,2,6.8,2c1.8,0,3.7-0.3,5.6-1c1.9-0.7,4-1.7,6.1-3v2.8c-1.7,2.3-3.6,4.6-5.8,6.8c-2.1,2.2-4.5,4.2-7,5.9
		c-0.4,0-0.7,0-1.1,0.1C724.4,495.2,724.1,495.2,723.7,495.2z M750.4,495c-2,0-3.9-0.5-5.7-1.5s-3.5-2.5-4.7-4.6
		c-1.3-2-2.1-4.5-2.4-7.5l1.2-58.5l-6.3-9.7c2.8-1.6,5.8-3,8.8-4c3.1-1,6.4-1.6,10-1.9v77.2l10.4-1.1c-0.2,2.6-0.9,4.7-2,6.4
		c-1.1,1.7-2.5,3-4.1,3.8C753.9,494.6,752.2,495,750.4,495z M743.4,406.3l-0.1-0.1h0.1V406.3z"/>
</g>
<circle cx="613.5" cy="417.8" r="9.1"/>
<rect x="268.8" y="64.2" class="st0" width="67.9" height="143.5"/>
<rect x="395.6" y="135.9" class="st1" width="86.1" height="71.7"/>
<rect x="481.6" y="135.9" class="st2" width="86.1" height="71.7"/>
<rect x="567.7" y="135.9" class="st3" width="86.1" height="71.7"/>
<g>
	<rect x="481.6" y="207.6" class="st2" width="86.1" height="71.7"/>
	<rect x="480.9" y="207.6" class="st4" width="86.1" height="71.7"/>
	<rect x="480.2" y="207.6" class="st5" width="86.1" height="71.7"/>
	<rect x="479.6" y="207.6" class="st6" width="86.1" height="71.7"/>
	<rect x="478.9" y="207.6" class="st7" width="86.1" height="71.7"/>
	<rect x="478.2" y="207.6" class="st8" width="86.1" height="71.7"/>
	<rect x="477.5" y="207.6" class="st9" width="86.1" height="71.7"/>
	<rect x="476.8" y="207.6" class="st10" width="86.1" height="71.7"/>
	<rect x="476.1" y="207.6" class="st11" width="86.1" height="71.7"/>
	<rect x="475.4" y="207.6" class="st12" width="86.1" height="71.7"/>
	<rect x="474.7" y="207.6" class="st13" width="86.1" height="71.7"/>
	<rect x="474.1" y="207.6" class="st14" width="86.1" height="71.7"/>
	<rect x="473.4" y="207.6" class="st15" width="86.1" height="71.7"/>
	<rect x="472.7" y="207.6" class="st16" width="86.1" height="71.7"/>
	<rect x="472" y="207.6" class="st17" width="86.1" height="71.7"/>
	<rect x="471.3" y="207.6" class="st18" width="86.1" height="71.7"/>
	<rect x="470.6" y="207.6" class="st19" width="86.1" height="71.7"/>
	<rect x="469.9" y="207.6" class="st20" width="86.1" height="71.7"/>
	<rect x="469.3" y="207.6" class="st21" width="86.1" height="71.7"/>
	<rect x="468.6" y="207.6" class="st22" width="86.1" height="71.7"/>
	<rect x="467.9" y="207.6" class="st23" width="86.1" height="71.7"/>
	<rect x="467.2" y="207.6" class="st24" width="86.1" height="71.7"/>
	<rect x="466.5" y="207.6" class="st25" width="86.1" height="71.7"/>
	<rect x="465.8" y="207.6" class="st26" width="86.1" height="71.7"/>
	<rect x="465.1" y="207.6" class="st27" width="86.1" height="71.7"/>
	<rect x="464.4" y="207.6" class="st28" width="86.1" height="71.7"/>
	<rect x="463.8" y="207.6" class="st29" width="86.1" height="71.7"/>
	<rect x="463.1" y="207.6" class="st30" width="86.1" height="71.7"/>
	<rect x="462.4" y="207.6" class="st31" width="86.1" height="71.7"/>
	<rect x="461.7" y="207.6" class="st32" width="86.1" height="71.7"/>
	<rect x="461" y="207.6" class="st33" width="86.1" height="71.7"/>
	<rect x="460.3" y="207.6" class="st34" width="86.1" height="71.7"/>
	<rect x="459.6" y="207.6" class="st35" width="86.1" height="71.7"/>
	<rect x="458.9" y="207.6" class="st36" width="86.1" height="71.7"/>
	<rect x="458.3" y="207.6" class="st37" width="86.1" height="71.7"/>
	<rect x="457.6" y="207.6" class="st3" width="86.1" height="71.7"/>
	<rect x="456.9" y="207.6" class="st38" width="86.1" height="71.7"/>
	<rect x="456.2" y="207.6" class="st39" width="86.1" height="71.7"/>
	<rect x="455.5" y="207.6" class="st40" width="86.1" height="71.7"/>
	<rect x="454.8" y="207.6" class="st41" width="86.1" height="71.7"/>
	<rect x="454.1" y="207.6" class="st42" width="86.1" height="71.7"/>
	<rect x="453.5" y="207.6" class="st43" width="86.1" height="71.7"/>
	<rect x="452.8" y="207.6" class="st44" width="86.1" height="71.7"/>
	<rect x="452.1" y="207.6" class="st45" width="86.1" height="71.7"/>
	<rect x="451.4" y="207.6" class="st46" width="86.1" height="71.7"/>
	<rect x="450.7" y="207.6" class="st47" width="86.1" height="71.7"/>
	<rect x="450" y="207.6" class="st48" width="86.1" height="71.7"/>
	<rect x="449.3" y="207.6" class="st49" width="86.1" height="71.7"/>
	<rect x="448.6" y="207.6" class="st50" width="86.1" height="71.7"/>
	<rect x="448" y="207.6" class="st51" width="86.1" height="71.7"/>
	<rect x="447.3" y="207.6" class="st52" width="86.1" height="71.7"/>
	<rect x="446.6" y="207.6" class="st53" width="86.1" height="71.7"/>
	<rect x="445.9" y="207.6" class="st54" width="86.1" height="71.7"/>
	<rect x="445.2" y="207.6" class="st55" width="86.1" height="71.7"/>
	<rect x="444.5" y="207.6" class="st56" width="86.1" height="71.7"/>
	<rect x="443.8" y="207.6" class="st57" width="86.1" height="71.7"/>
	<rect x="443.1" y="207.6" class="st58" width="86.1" height="71.7"/>
	<rect x="442.5" y="207.6" class="st59" width="86.1" height="71.7"/>
	<rect x="441.8" y="207.6" class="st60" width="86.1" height="71.7"/>
	<rect x="441.1" y="207.6" class="st61" width="86.1" height="71.7"/>
	<rect x="440.4" y="207.6" class="st62" width="86.1" height="71.7"/>
	<rect x="439.7" y="207.6" class="st63" width="86.1" height="71.7"/>
	<rect x="439" y="207.6" class="st64" width="86.1" height="71.7"/>
	<rect x="438.3" y="207.6" class="st65" width="86.1" height="71.7"/>
	<rect x="437.7" y="207.6" class="st66" width="86.1" height="71.7"/>
	<rect x="437" y="207.6" class="st67" width="86.1" height="71.7"/>
	<rect x="436.3" y="207.6" class="st68" width="86.1" height="71.7"/>
	<rect x="435.6" y="207.6" class="st69" width="86.1" height="71.7"/>
	<rect x="434.9" y="207.6" class="st70" width="86.1" height="71.7"/>
	<rect x="434.2" y="207.6" class="st71" width="86.1" height="71.7"/>
	<rect x="433.5" y="207.6" class="st72" width="86.1" height="71.7"/>
	<rect x="432.8" y="207.6" class="st73" width="86.1" height="71.7"/>
	<rect x="432.2" y="207.6" class="st74" width="86.1" height="71.7"/>
	<rect x="431.5" y="207.6" class="st75" width="86.1" height="71.7"/>
	<rect x="430.8" y="207.6" class="st76" width="86.1" height="71.7"/>
	<rect x="430.1" y="207.6" class="st77" width="86.1" height="71.7"/>
	<rect x="429.4" y="207.6" class="st78" width="86.1" height="71.7"/>
	<rect x="428.7" y="207.6" class="st79" width="86.1" height="71.7"/>
	<rect x="428" y="207.6" class="st80" width="86.1" height="71.7"/>
	<rect x="427.3" y="207.6" class="st81" width="86.1" height="71.7"/>
	<rect x="426.7" y="207.6" class="st82" width="86.1" height="71.7"/>
	<rect x="426" y="207.6" class="st83" width="86.1" height="71.7"/>
	<rect x="425.3" y="207.6" class="st84" width="86.1" height="71.7"/>
	<rect x="424.6" y="207.6" class="st85" width="86.1" height="71.7"/>
	<rect x="423.9" y="207.6" class="st86" width="86.1" height="71.7"/>
	<rect x="423.2" y="207.6" class="st87" width="86.1" height="71.7"/>
	<rect x="422.5" y="207.6" class="st88" width="86.1" height="71.7"/>
	<rect x="421.9" y="207.6" class="st89" width="86.1" height="71.7"/>
	<rect x="421.2" y="207.6" class="st90" width="86.1" height="71.7"/>
	<rect x="420.5" y="207.6" class="st91" width="86.1" height="71.7"/>
	<rect x="419.8" y="207.6" class="st92" width="86.1" height="71.7"/>
	<rect x="419.1" y="207.6" class="st93" width="86.1" height="71.7"/>
	<rect x="418.4" y="207.6" class="st94" width="86.1" height="71.7"/>
	<rect x="417.7" y="207.6" class="st95" width="86.1" height="71.7"/>
	<rect x="417" y="207.6" class="st96" width="86.1" height="71.7"/>
	<rect x="416.4" y="207.6" class="st97" width="86.1" height="71.7"/>
	<rect x="415.7" y="207.6" class="st98" width="86.1" height="71.7"/>
	<rect x="415" y="207.6" class="st99" width="86.1" height="71.7"/>
	<rect x="414.3" y="207.6" class="st100" width="86.1" height="71.7"/>
	<rect x="413.6" y="207.6" class="st101" width="86.1" height="71.7"/>
	<rect x="412.9" y="207.6" class="st102" width="86.1" height="71.7"/>
	<rect x="412.2" y="207.6" class="st103" width="86.1" height="71.7"/>
	<rect x="411.5" y="207.6" class="st104" width="86.1" height="71.7"/>
	<rect x="410.9" y="207.6" class="st105" width="86.1" height="71.7"/>
	<rect x="410.2" y="207.6" class="st106" width="86.1" height="71.7"/>
	<rect x="409.5" y="207.6" class="st107" width="86.1" height="71.7"/>
	<rect x="408.8" y="207.6" class="st108" width="86.1" height="71.7"/>
	<rect x="408.1" y="207.6" class="st109" width="86.1" height="71.7"/>
	<rect x="407.4" y="207.6" class="st110" width="86.1" height="71.7"/>
	<rect x="406.7" y="207.6" class="st111" width="86.1" height="71.7"/>
	<rect x="406.1" y="207.6" class="st112" width="86.1" height="71.7"/>
	<rect x="405.4" y="207.6" class="st113" width="86.1" height="71.7"/>
	<rect x="404.7" y="207.6" class="st114" width="86.1" height="71.7"/>
	<rect x="404" y="207.6" class="st115" width="86.1" height="71.7"/>
	<rect x="403.3" y="207.6" class="st116" width="86.1" height="71.7"/>
	<rect x="402.6" y="207.6" class="st117" width="86.1" height="71.7"/>
	<rect x="401.9" y="207.6" class="st118" width="86.1" height="71.7"/>
	<rect x="401.2" y="207.6" class="st119" width="86.1" height="71.7"/>
	<rect x="400.6" y="207.6" class="st120" width="86.1" height="71.7"/>
	<rect x="399.9" y="207.6" class="st121" width="86.1" height="71.7"/>
	<rect x="399.2" y="207.6" class="st122" width="86.1" height="71.7"/>
	<rect x="398.5" y="207.6" class="st123" width="86.1" height="71.7"/>
	<rect x="397.8" y="207.6" class="st124" width="86.1" height="71.7"/>
	<rect x="397.1" y="207.6" class="st125" width="86.1" height="71.7"/>
	<rect x="396.4" y="207.6" class="st126" width="86.1" height="71.7"/>
	<rect x="395.7" y="207.6" class="st127" width="86.1" height="71.7"/>
	<rect x="395.1" y="207.6" class="st128" width="86.1" height="71.7"/>
	<rect x="394.4" y="207.6" class="st129" width="86.1" height="71.7"/>
	<rect x="393.7" y="207.6" class="st130" width="86.1" height="71.7"/>
	<rect x="393" y="207.6" class="st131" width="86.1" height="71.7"/>
	<rect x="392.3" y="207.6" class="st132" width="86.1" height="71.7"/>
	<rect x="391.6" y="207.6" class="st133" width="86.1" height="71.7"/>
	<rect x="390.9" y="207.6" class="st134" width="86.1" height="71.7"/>
	<rect x="390.3" y="207.6" class="st135" width="86.1" height="71.7"/>
	<rect x="389.6" y="207.6" class="st136" width="86.1" height="71.7"/>
	<rect x="388.9" y="207.6" class="st137" width="86.1" height="71.7"/>
	<rect x="388.2" y="207.6" class="st138" width="86.1" height="71.7"/>
	<rect x="387.5" y="207.6" class="st139" width="86.1" height="71.7"/>
	<rect x="386.8" y="207.6" class="st140" width="86.1" height="71.7"/>
	<rect x="386.1" y="207.6" class="st141" width="86.1" height="71.7"/>
	<rect x="385.4" y="207.6" class="st142" width="86.1" height="71.7"/>
	<rect x="384.8" y="207.6" class="st143" width="86.1" height="71.7"/>
	<rect x="384.1" y="207.6" class="st144" width="86.1" height="71.7"/>
	<rect x="383.4" y="207.6" class="st145" width="86.1" height="71.7"/>
	<rect x="382.7" y="207.6" class="st146" width="86.1" height="71.7"/>
	<rect x="382" y="207.6" class="st147" width="86.1" height="71.7"/>
	<rect x="381.3" y="207.6" class="st148" width="86.1" height="71.7"/>
	<rect x="380.6" y="207.6" class="st149" width="86.1" height="71.7"/>
	<rect x="379.9" y="207.6" class="st150" width="86.1" height="71.7"/>
	<rect x="379.3" y="207.6" class="st151" width="86.1" height="71.7"/>
	<rect x="378.6" y="207.6" class="st152" width="86.1" height="71.7"/>
	<rect x="377.9" y="207.6" class="st153" width="86.1" height="71.7"/>
	<rect x="377.2" y="207.6" class="st154" width="86.1" height="71.7"/>
	<rect x="376.5" y="207.6" class="st155" width="86.1" height="71.7"/>
	<rect x="375.8" y="207.6" class="st156" width="86.1" height="71.7"/>
	<rect x="375.1" y="207.6" class="st157" width="86.1" height="71.7"/>
	<rect x="374.5" y="207.6" class="st158" width="86.1" height="71.7"/>
	<rect x="373.8" y="207.6" class="st159" width="86.1" height="71.7"/>
	<rect x="373.1" y="207.6" class="st160" width="86.1" height="71.7"/>
	<rect x="372.4" y="207.6" class="st161" width="86.1" height="71.7"/>
	<rect x="371.7" y="207.6" class="st162" width="86.1" height="71.7"/>
	<rect x="371" y="207.6" class="st163" width="86.1" height="71.7"/>
	<rect x="370.3" y="207.6" class="st164" width="86.1" height="71.7"/>
	<rect x="369.6" y="207.6" class="st165" width="86.1" height="71.7"/>
	<rect x="369" y="207.6" class="st166" width="86.1" height="71.7"/>
	<rect x="368.3" y="207.6" class="st167" width="86.1" height="71.7"/>
	<rect x="367.6" y="207.6" class="st168" width="86.1" height="71.7"/>
	<rect x="366.9" y="207.6" class="st169" width="86.1" height="71.7"/>
	<rect x="366.2" y="207.6" class="st170" width="86.1" height="71.7"/>
	<rect x="365.5" y="207.6" class="st171" width="86.1" height="71.7"/>
	<rect x="364.8" y="207.6" class="st172" width="86.1" height="71.7"/>
	<rect x="364.1" y="207.6" class="st173" width="86.1" height="71.7"/>
	<rect x="363.5" y="207.6" class="st174" width="86.1" height="71.7"/>
	<rect x="362.8" y="207.6" class="st175" width="86.1" height="71.7"/>
	<rect x="362.1" y="207.6" class="st176" width="86.1" height="71.7"/>
	<rect x="361.4" y="207.6" class="st177" width="86.1" height="71.7"/>
	<rect x="360.7" y="207.6" class="st178" width="86.1" height="71.7"/>
	<rect x="360" y="207.6" class="st179" width="86.1" height="71.7"/>
	<rect x="359.3" y="207.6" class="st180" width="86.1" height="71.7"/>
	<rect x="358.7" y="207.6" class="st181" width="86.1" height="71.7"/>
	<rect x="358" y="207.6" class="st182" width="86.1" height="71.7"/>
	<rect x="357.3" y="207.6" class="st183" width="86.1" height="71.7"/>
	<rect x="356.6" y="207.6" class="st184" width="86.1" height="71.7"/>
	<rect x="355.9" y="207.6" class="st185" width="86.1" height="71.7"/>
	<rect x="355.2" y="207.6" class="st186" width="86.1" height="71.7"/>
	<rect x="354.5" y="207.6" class="st187" width="86.1" height="71.7"/>
	<rect x="353.8" y="207.6" class="st188" width="86.1" height="71.7"/>
	<rect x="353.2" y="207.6" class="st189" width="86.1" height="71.7"/>
	<rect x="352.5" y="207.6" class="st190" width="86.1" height="71.7"/>
	<rect x="351.8" y="207.6" class="st191" width="86.1" height="71.7"/>
	<rect x="351.1" y="207.6" class="st192" width="86.1" height="71.7"/>
	<rect x="350.4" y="207.6" class="st193" width="86.1" height="71.7"/>
	<rect x="349.7" y="207.6" class="st194" width="86.1" height="71.7"/>
	<rect x="349" y="207.6" class="st195" width="86.1" height="71.7"/>
	<rect x="348.3" y="207.6" class="st196" width="86.1" height="71.7"/>
	<rect x="347.7" y="207.6" class="st197" width="86.1" height="71.7"/>
	<rect x="347" y="207.6" class="st198" width="86.1" height="71.7"/>
	<rect x="346.3" y="207.6" class="st199" width="86.1" height="71.7"/>
	<rect x="345.6" y="207.6" class="st200" width="86.1" height="71.7"/>
	<rect x="344.9" y="207.6" class="st201" width="86.1" height="71.7"/>
	<rect x="344.2" y="207.6" class="st202" width="86.1" height="71.7"/>
	<rect x="343.5" y="207.6" class="st203" width="86.1" height="71.7"/>
	<rect x="342.9" y="207.6" class="st204" width="86.1" height="71.7"/>
	<rect x="342.2" y="207.6" class="st205" width="86.1" height="71.7"/>
	<rect x="341.5" y="207.6" class="st206" width="86.1" height="71.7"/>
	<rect x="340.8" y="207.6" class="st207" width="86.1" height="71.7"/>
	<rect x="340.1" y="207.6" class="st208" width="86.1" height="71.7"/>
	<rect x="339.4" y="207.6" class="st209" width="86.1" height="71.7"/>
	<rect x="338.7" y="207.6" class="st210" width="86.1" height="71.7"/>
	<rect x="338" y="207.6" class="st211" width="86.1" height="71.7"/>
	<rect x="337.4" y="207.6" class="st212" width="86.1" height="71.7"/>
	<rect x="336.7" y="207.6" class="st213" width="86.1" height="71.7"/>
</g>
</svg>
