<?xml version="1.0" encoding="utf-8"?>
<!-- Generator: Adobe Illustrator 27.0.0, SVG Export Plug-In . SVG Version: 6.00 Build 0)  -->
<svg version="1.1" id="Livello_1" xmlns="http://www.w3.org/2000/svg" xmlns:xlink="http://www.w3.org/1999/xlink" x="0px" y="0px"
	 viewBox="0 0 40 40" style="enable-background:new 0 0 40 40;" xml:space="preserve">
<style type="text/css">
	.st0{fill:#7F7F7F;}
</style>
<ellipse transform="matrix(0.1602 -0.9871 0.9871 0.1602 2.4638 31.9359)" class="st0" cx="20" cy="14.5" rx="6" ry="6"/>
<path class="st0" d="M40,20c0,4.3-1.3,8.2-3.6,11.5c-0.1-0.4-0.3-0.7-0.4-1.1c-0.2-0.4-0.3-0.8-0.5-1.1c1.6-2.7,2.6-5.9,2.6-9.2
	c0-9.9-8.1-18-18-18S2,10.1,2,20c0,3.4,0.9,6.5,2.6,9.2C4.4,29.6,4.2,30,4,30.4c-0.1,0.4-0.3,0.7-0.4,1.1C1.3,28.2,0,24.3,0,20
	C0,9,9,0,20,0S40,9,40,20z"/>
<path class="st0" d="M34.1,31.2c0.6,1.3,0.2,2.9-0.9,3.8c0,0,0,0-0.1,0c-0.6,0.5-1.2,1-1.8,1.4C28.1,38.7,24.2,40,20,40
	s-8.1-1.3-11.3-3.5C8,36,7.4,35.6,6.8,35.1c0,0,0,0-0.1,0c-1.1-0.9-1.5-2.5-0.9-3.8c0,0,0,0,0,0c2.3-5.5,7.8-9.4,14.1-9.4
	S31.8,25.7,34.1,31.2C34.1,31.2,34.1,31.2,34.1,31.2z"/>
</svg>
